<?xml version="1.0" encoding="UTF-8" standalone="no"?>
<!-- Created with Inkscape (http://www.inkscape.org/) -->

<svg
   width="210mm"
   height="297mm"
   viewBox="0 0 210 297"
   version="1.1"
   id="svg1"
   xml:space="preserve"
   inkscape:version="1.3.2 (091e20ef0f, 2023-11-25, custom)"
   sodipodi:docname="lug-logo-circlified-safe-text.svg"
   xmlns:inkscape="http://www.inkscape.org/namespaces/inkscape"
   xmlns:sodipodi="http://sodipodi.sourceforge.net/DTD/sodipodi-0.dtd"
   xmlns:xlink="http://www.w3.org/1999/xlink"
   xmlns="http://www.w3.org/2000/svg"
   xmlns:svg="http://www.w3.org/2000/svg"><sodipodi:namedview
     id="namedview1"
     pagecolor="#282828"
     bordercolor="#eeeeee"
     borderopacity="1"
     inkscape:showpageshadow="0"
     inkscape:pageopacity="0"
     inkscape:pagecheckerboard="0"
     inkscape:deskcolor="#000000"
     inkscape:document-units="mm"
     inkscape:zoom="1.2339778"
     inkscape:cx="300.65372"
     inkscape:cy="623.99829"
     inkscape:window-width="1900"
     inkscape:window-height="1027"
     inkscape:window-x="0"
     inkscape:window-y="0"
     inkscape:window-maximized="0"
     inkscape:current-layer="layer1" /><defs
     id="defs1"><linearGradient
       id="linearGradient326"
       inkscape:collect="always"><stop
         style="stop-color:#df71c5;stop-opacity:1;"
         offset="0"
         id="stop326" /><stop
         style="stop-color:#a6ca6a;stop-opacity:1;"
         offset="1"
         id="stop327" /></linearGradient><rect
       x="587.34056"
       y="272.16228"
       width="27.397818"
       height="74.957281"
       id="rect50" /><linearGradient
       id="linearGradient44"><stop
         style="stop-color:#ffc8c8;stop-opacity:1;"
         offset="0"
         id="stop40" /><stop
         style="stop-color:#ffffc8;stop-opacity:1;"
         offset="0.24746418"
         id="stop41" /><stop
         style="stop-color:#c8ffff;stop-opacity:1;"
         offset="0.49653617"
         id="stop42" /><stop
         style="stop-color:#c8c8ff;stop-opacity:1;"
         offset="0.75"
         id="stop43" /><stop
         style="stop-color:#ffc8ff;stop-opacity:1;"
         offset="1"
         id="stop44" /></linearGradient><linearGradient
       id="linearGradient28"><stop
         style="stop-color:#ffaaaa;stop-opacity:1;"
         offset="0"
         id="stop32" /><stop
         style="stop-color:#ffffaa;stop-opacity:1;"
         offset="0.24746418"
         id="stop33" /><stop
         style="stop-color:#aaffff;stop-opacity:1;"
         offset="0.49653617"
         id="stop34" /><stop
         style="stop-color:#aaaaff;stop-opacity:1;"
         offset="0.75"
         id="stop35" /><stop
         style="stop-color:#ffaaff;stop-opacity:1;"
         offset="1"
         id="stop36" /></linearGradient><linearGradient
       id="linearGradient28-1"><stop
         style="stop-color:#ffaaaa;stop-opacity:1;"
         offset="0"
         id="stop27" /><stop
         style="stop-color:#ffffaa;stop-opacity:1;"
         offset="0.24746418"
         id="stop30" /><stop
         style="stop-color:#aaffff;stop-opacity:1;"
         offset="0.49653617"
         id="stop29" /><stop
         style="stop-color:#aaaaff;stop-opacity:1;"
         offset="0.75"
         id="stop31" /><stop
         style="stop-color:#ffaaff;stop-opacity:1;"
         offset="1"
         id="stop28" /></linearGradient><linearGradient
       id="linearGradient26"><stop
         style="stop-color:#ffffff;stop-opacity:1;"
         offset="0"
         id="stop25" /><stop
         style="stop-color:#ffffff;stop-opacity:0;"
         offset="0.13594182"
         id="stop26" /></linearGradient><linearGradient
       id="linearGradient12"><stop
         style="stop-color:#ffffff;stop-opacity:1;"
         offset="0"
         id="stop23" /><stop
         style="stop-color:#ffffff;stop-opacity:0;"
         offset="1"
         id="stop24" /></linearGradient><linearGradient
       id="linearGradient12-1"><stop
         style="stop-color:#ffffff;stop-opacity:1;"
         offset="0"
         id="stop12" /><stop
         style="stop-color:#ffffff;stop-opacity:0;"
         offset="1"
         id="stop13" /></linearGradient><inkscape:path-effect
       is_visible="true"
       id="path-effect29672-0"
       effect="spiro" /><inkscape:path-effect
       is_visible="true"
       id="path-effect29678-1"
       effect="spiro" /><inkscape:path-effect
       is_visible="true"
       id="path-effect29678-4-6"
       effect="spiro" /><inkscape:path-effect
       is_visible="true"
       id="path-effect28714-5"
       effect="spiro" /><inkscape:path-effect
       is_visible="true"
       id="path-effect29721-2"
       effect="spiro" /><inkscape:path-effect
       is_visible="true"
       id="path-effect28463-8-0"
       effect="spiro" /><inkscape:path-effect
       is_visible="true"
       id="path-effect28463-0-7"
       effect="spiro" /><linearGradient
       id="linearGradient28799-5-5"><stop
         id="stop28801-1-9"
         offset="0"
         style="stop-color:#fefefc;stop-opacity:1;" /><stop
         style="stop-color:#fefefc;stop-opacity:1"
         offset="0.75733864"
         id="stop28807-2-6" /><stop
         id="stop28803-6-3"
         offset="1"
         style="stop-color:#d4d4d4;stop-opacity:1" /></linearGradient><inkscape:path-effect
       is_visible="true"
       id="path-effect28797-8-1"
       effect="spiro" /><inkscape:path-effect
       is_visible="true"
       id="path-effect28797-81"
       effect="spiro" /><inkscape:path-effect
       is_visible="true"
       id="path-effect28273-4-2"
       effect="spiro" /><linearGradient
       id="linearGradient28853-5"><stop
         id="stop28855-3"
         offset="0"
         style="stop-color:#020204;stop-opacity:1" /><stop
         style="stop-color:#020204;stop-opacity:1"
         offset="0.73448181"
         id="stop28865-0" /><stop
         id="stop28857-9"
         offset="1"
         style="stop-color:#5c5c5c;stop-opacity:1;" /></linearGradient><inkscape:path-effect
       is_visible="true"
       id="path-effect28851-0"
       effect="spiro" /><inkscape:path-effect
       is_visible="true"
       id="path-effect28881-6"
       effect="spiro" /><linearGradient
       id="linearGradient28935-8"><stop
         id="stop28937-7"
         offset="0"
         style="stop-color:#949494;stop-opacity:0.39215687;" /><stop
         style="stop-color:#949494;stop-opacity:1;"
         offset="0.5"
         id="stop28943-3" /><stop
         id="stop28939-8"
         offset="1"
         style="stop-color:#949494;stop-opacity:0.39215687;" /></linearGradient><linearGradient
       id="linearGradient28976-3"><stop
         id="stop28978-7"
         offset="0"
         style="stop-color:#747474;stop-opacity:1" /><stop
         style="stop-color:#8c8c8c;stop-opacity:1;"
         offset="0.125"
         id="stop29259-5" /><stop
         style="stop-color:#a4a4a4;stop-opacity:1;"
         offset="0.25"
         id="stop29257-0" /><stop
         style="stop-color:#d4d4d4;stop-opacity:1"
         offset="0.5"
         id="stop28984-4" /><stop
         id="stop28986-0"
         offset="0.61919296"
         style="stop-color:#d4d4d4;stop-opacity:1" /><stop
         id="stop28980-2"
         offset="1"
         style="stop-color:#7c7c7c;stop-opacity:1" /></linearGradient><inkscape:path-effect
       is_visible="true"
       id="path-effect28974-8"
       effect="spiro" /><clipPath
       id="clipPath29028-5"
       clipPathUnits="userSpaceOnUse"><path
         sodipodi:nodetypes="aaaaaaaa"
         inkscape:connector-curvature="0"
         id="path29030-7"
         d="m 85.75,122.36218 c -2.780425,1.91023 -5.110569,4.57487 -6.25,7.75 -1.436029,4.00163 -0.885838,8.48071 0.5,12.5 1.419488,4.11688 3.793788,8.04098 7.37932,10.51234 1.792766,1.23567 3.868091,2.08301 6.030402,2.33859 2.162311,0.25558 4.409274,-0.0949 6.340278,-1.10093 2.35312,-1.22596 4.14782,-3.37278 5.26217,-5.78076 1.11436,-2.40798 1.5888,-5.0701 1.73783,-7.71924 0.18989,-3.37546 -0.14047,-6.80646 -1.25,-10 -1.20527,-3.46909 -3.39005,-6.67055 -6.472754,-8.6666 -1.541351,-0.99803 -3.291947,-1.68356 -5.110883,-1.93515 -1.818936,-0.25158 -3.704766,-0.0633 -5.416363,0.60175 -0.975471,0.37901 -1.887438,0.9074 -2.75,1.5"
         style="fill:url(#radialGradient29032);fill-opacity:1;stroke:none" /></clipPath><linearGradient
       id="linearGradient29336-6"><stop
         id="stop29338-1"
         offset="0"
         style="stop-color:#646464;stop-opacity:0" /><stop
         style="stop-color:#646464;stop-opacity:0.5825243"
         offset="0.30628255"
         id="stop29344-7" /><stop
         id="stop29354-5"
         offset="0.47000006"
         style="stop-color:#646464;stop-opacity:1" /><stop
         style="stop-color:#646464;stop-opacity:0.25728154"
         offset="0.72834015"
         id="stop29356-3" /><stop
         id="stop29340-6"
         offset="1"
         style="stop-color:#646464;stop-opacity:0;" /></linearGradient><inkscape:path-effect
       is_visible="true"
       id="path-effect29455-3"
       effect="spiro" /><linearGradient
       id="linearGradient29477-3"><stop
         id="stop29479-5"
         offset="0"
         style="stop-color:#757574;stop-opacity:0" /><stop
         style="stop-color:#757574;stop-opacity:1;"
         offset="0.26291031"
         id="stop29487-5" /><stop
         style="stop-color:#757574;stop-opacity:1;"
         offset="0.5"
         id="stop29485-0" /><stop
         id="stop29481-3"
         offset="1"
         style="stop-color:#757574;stop-opacity:0" /></linearGradient><linearGradient
       id="linearGradient28469-0"><stop
         style="stop-color:#d2940a;stop-opacity:1"
         offset="0"
         id="stop28479-4" /><stop
         style="stop-color:#d89c08;stop-opacity:1"
         offset="0.75143719"
         id="stop28477-2" /><stop
         id="stop28485-7"
         offset="0.86579126"
         style="stop-color:#b67e07;stop-opacity:1;" /><stop
         id="stop28473-1"
         offset="1"
         style="stop-color:#946106;stop-opacity:1" /></linearGradient><inkscape:path-effect
       is_visible="true"
       id="path-effect28463-4"
       effect="spiro" /><inkscape:path-effect
       is_visible="true"
       id="path-effect28489-4"
       effect="spiro" /><inkscape:path-effect
       is_visible="true"
       id="path-effect28273-54-7"
       effect="spiro" /><linearGradient
       id="linearGradient28275-8"><stop
         id="stop28277-1"
         offset="0"
         style="stop-color:#ad780a;stop-opacity:1" /><stop
         style="stop-color:#d89e08;stop-opacity:1"
         offset="0.11972899"
         id="stop28291-9" /><stop
         style="stop-color:#edb80b;stop-opacity:1"
         offset="0.25514477"
         id="stop28289-6" /><stop
         style="stop-color:#ebc80d;stop-opacity:1"
         offset="0.39194193"
         id="stop28287-6" /><stop
         style="stop-color:#f5d838;stop-opacity:1"
         offset="0.52741116"
         id="stop28285-7" /><stop
         style="stop-color:#f6d811;stop-opacity:1"
         offset="0.76906693"
         id="stop28283-7" /><stop
         id="stop28279-5"
         offset="1"
         style="stop-color:#f5cd31;stop-opacity:1" /></linearGradient><inkscape:path-effect
       is_visible="true"
       id="path-effect28273-44"
       effect="spiro" /><inkscape:path-effect
       is_visible="true"
       id="path-effect28384-7"
       effect="spiro" /><linearGradient
       id="linearGradient29529-6"><stop
         id="stop29531-0"
         offset="0"
         style="stop-color:#3a2903;stop-opacity:1;" /><stop
         style="stop-color:#735208;stop-opacity:1"
         offset="0.55472803"
         id="stop29539-7" /><stop
         id="stop29533-8"
         offset="1"
         style="stop-color:#ac8c04;stop-opacity:1" /></linearGradient><inkscape:path-effect
       is_visible="true"
       id="path-effect29553-7"
       effect="spiro" /><clipPath
       id="clipPath29644-8"
       clipPathUnits="userSpaceOnUse"><path
         sodipodi:nodetypes="zzzzzzz"
         inkscape:connector-curvature="0"
         id="path29646-8"
         d="m 54.232441,122.36218 c -1.780966,0.097 -3.484616,0.91899 -4.787851,2.1367 -1.303235,1.21771 -2.221372,2.81176 -2.786181,4.50357 -1.129618,3.38363 -0.875481,7.05177 -0.618698,10.60973 0.23251,3.22162 0.470404,6.50533 1.676785,9.50158 0.60319,1.49813 1.450247,2.91021 2.580338,4.06395 1.130092,1.15374 2.551736,2.04189 4.118297,2.43447 1.468838,0.36809 3.038161,0.29183 4.482784,-0.16209 1.444623,-0.45391 2.763917,-1.27887 3.846236,-2.33791 1.57904,-1.54507 2.643262,-3.5662 3.253449,-5.68947 0.610186,-2.12328 0.784157,-4.35155 0.752401,-6.56053 -0.03974,-2.76435 -0.400909,-5.53851 -1.265755,-8.16439 -0.864846,-2.62588 -2.245742,-5.10327 -4.172795,-7.08561 -0.933308,-0.96009 -1.997766,-1.80513 -3.198586,-2.39747 -1.200819,-0.59233 -2.54344,-0.92535 -3.880424,-0.85253"
         style="fill:url(#radialGradient29648);fill-opacity:1;stroke:none" /></clipPath><inkscape:path-effect
       is_visible="true"
       id="path-effect29707-7-6"
       effect="spiro" /><clipPath
       clipPathUnits="userSpaceOnUse"
       id="clipPath14656-7"><path
         sodipodi:nodetypes="aaaaassssaaaaaa"
         inkscape:connector-curvature="0"
         d="m 304.84727,225.44951 c 6.01627,4.92338 9.77707,12.317 10.94319,20.00305 1.8254,12.03148 -2.34636,24.07488 -6.44591,35.53273 -0.81749,2.28481 -1.63978,4.59033 -1.96473,6.99513 -0.32495,2.4048 -0.11897,4.94825 1.02948,7.08594 1.30279,2.42497 3.73227,4.12469 6.36677,4.92292 2.58877,0.78438 5.39365,0.76103 8.01466,0.0922 2.62101,-0.66882 5.06097,-1.96774 7.18716,-3.63996 5.48002,-4.30997 8.75799,-10.98552 10.01043,-17.84394 1.25243,-6.85841 0.63908,-13.92879 -0.551,-20.7983 -1.62313,-9.36916 -4.30898,-18.53961 -7.74003,-27.40773 -2.51766,-6.50732 -5.46794,-12.91081 -9.61753,-18.52016 -4.04611,-5.46946 -9.16208,-10.08954 -13.10336,-15.63502 -2.73209,-3.84412 -4.89983,-8.13097 -8.1917,-11.50812 -1.64594,-1.68858 -3.57654,-3.13527 -5.76975,-4.00143 -2.19321,-0.86616 -4.66356,-1.12446 -6.93254,-0.48249 -1.50468,0.42573 -2.89193,1.23739 -4.03791,2.30136 -1.14598,1.06397 -2.05268,2.37637 -2.69275,3.80312 -1.28015,2.85349 -1.47719,6.11241 -0.96512,9.1977 0.66114,3.98343 2.44407,7.69333 4.46569,11.18873 2.27396,3.93169 4.918,7.71926 8.38442,10.65407 3.5985,3.04664 7.96161,5.07413 11.61053,8.0602"
         id="path14658-9"
         style="fill:none;stroke:#c17d11;stroke-width:1px;stroke-linecap:butt;stroke-linejoin:miter;stroke-opacity:1" /></clipPath><inkscape:path-effect
       is_visible="true"
       id="path-effect4500-7"
       effect="spiro" /><inkscape:path-effect
       is_visible="true"
       id="path-effect4582-3"
       effect="spiro" /><inkscape:path-effect
       effect="spiro"
       id="path-effect14300-7"
       is_visible="true" /><clipPath
       clipPathUnits="userSpaceOnUse"
       id="clipPath14489-3"><path
         style="fill:url(#linearGradient14493);fill-opacity:1;stroke:none"
         d="m 516.00562,331.8756 c -0.6714,1.71905 -1.62682,3.32679 -2.81579,4.73826 -2.6238,3.11482 -6.268,5.17039 -9.89648,7.01985 -6.1886,3.15437 -12.60169,5.92177 -18.41964,9.71654 -3.89802,2.54249 -7.4959,5.52671 -10.86016,8.74238 -2.87719,2.75012 -5.60582,5.68745 -8.83247,8.01771 -3.25567,2.35122 -7.01915,4.05426 -10.99061,4.6502 -4.83026,0.72481 -9.82134,-0.21289 -14.29898,-2.16416 -3.13754,-1.36728 -6.15569,-3.3229 -7.96301,-6.22931 -1.81425,-2.91754 -2.22807,-6.48813 -2.23266,-9.92375 -0.008,-6.07666 1.11824,-12.09004 2.17848,-18.07349 0.88097,-4.97177 1.71949,-9.95483 2.26013,-14.97502 0.98337,-9.13118 0.9763,-18.35278 0.3199,-27.51327 -0.10993,-1.53416 -0.23754,-3.0832 -0.008,-4.60412 0.22922,-1.52092 0.85475,-3.0367 2.02069,-4.03986 1.07696,-0.9266 2.52093,-1.33598 3.93947,-1.4145 1.41854,-0.0785 2.83404,0.14655 4.23982,0.35197 3.31254,0.48405 6.65159,0.8649 9.88917,1.71656 2.04284,0.53738 4.03315,1.25925 6.0722,1.81081 3.40258,0.92039 6.96639,1.36144 10.46739,0.95192 3.76917,-0.44089 7.42987,-1.85678 11.22363,-1.76474 1.55658,0.0378 3.1015,0.33171 4.58649,0.79985 1.51539,0.47772 3.00914,1.16182 4.12281,2.29512 0.84639,0.8613 1.43579,1.94539 1.87872,3.06879 0.65982,1.67352 1.01492,3.457 1.16703,5.24945 0.13475,1.58788 0.11343,3.19441 0.41433,4.75933 0.49503,2.57458 1.84746,4.92305 3.52848,6.93494 1.68102,2.01189 3.68982,3.72048 5.69641,5.40783 1.99908,1.68103 4.0106,3.35469 6.16708,4.82839 1.0121,0.69165 2.05642,1.33949 3.01736,2.10062 0.96094,0.76113 1.84466,1.6468 2.44543,2.71535 0.81492,1.44944 1.06377,3.2077 0.68307,4.82635 l 2e-5,0"
         id="path14491-6"
         inkscape:connector-curvature="0"
         sodipodi:nodetypes="aaaaaaaaaaaaaaaaaaaaaaaacscaa" /></clipPath><inkscape:path-effect
       effect="spiro"
       id="path-effect14300-2-7"
       is_visible="true" /><clipPath
       clipPathUnits="userSpaceOnUse"
       id="clipPath14481-1"><path
         style="fill:url(#linearGradient14485);fill-opacity:1;stroke:none"
         d="m 516.00562,331.8756 c -0.6714,1.71905 -1.62682,3.32679 -2.81579,4.73826 -2.6238,3.11482 -6.268,5.17039 -9.89648,7.01985 -6.1886,3.15437 -12.60169,5.92177 -18.41964,9.71654 -3.89802,2.54249 -7.4959,5.52671 -10.86016,8.74238 -2.87719,2.75012 -5.60582,5.68745 -8.83247,8.01771 -3.25567,2.35122 -7.01915,4.05426 -10.99061,4.6502 -4.83026,0.72481 -9.82134,-0.21289 -14.29898,-2.16416 -3.13754,-1.36728 -6.15569,-3.3229 -7.96301,-6.22931 -1.81425,-2.91754 -2.22807,-6.48813 -2.23266,-9.92375 -0.008,-6.07666 1.11824,-12.09004 2.17848,-18.07349 0.88097,-4.97177 1.71949,-9.95483 2.26013,-14.97502 0.98337,-9.13118 0.9763,-18.35278 0.3199,-27.51327 -0.10993,-1.53416 -0.23754,-3.0832 -0.008,-4.60412 0.22922,-1.52092 0.85475,-3.0367 2.02069,-4.03986 1.07696,-0.9266 2.52093,-1.33598 3.93947,-1.4145 1.41854,-0.0785 2.83404,0.14655 4.23982,0.35197 3.31254,0.48405 6.65159,0.8649 9.88917,1.71656 2.04284,0.53738 4.03315,1.25925 6.0722,1.81081 3.40258,0.92039 6.96639,1.36144 10.46739,0.95192 3.76917,-0.44089 7.42987,-1.85678 11.22363,-1.76474 1.55658,0.0378 3.1015,0.33171 4.58649,0.79985 1.51539,0.47772 3.00914,1.16182 4.12281,2.29512 0.84639,0.8613 1.43579,1.94539 1.87872,3.06879 0.65982,1.67352 1.01492,3.457 1.16703,5.24945 0.13475,1.58788 0.11343,3.19441 0.41433,4.75933 0.49503,2.57458 1.84746,4.92305 3.52848,6.93494 1.68102,2.01189 3.68982,3.72048 5.69641,5.40783 1.99908,1.68103 4.0106,3.35469 6.16708,4.82839 1.0121,0.69165 2.05642,1.33949 3.01736,2.10062 0.96094,0.76113 1.84466,1.6468 2.44543,2.71535 0.81492,1.44944 1.06377,3.2077 0.68307,4.82635 l 2e-5,0"
         id="path14483-3"
         inkscape:connector-curvature="0"
         sodipodi:nodetypes="aaaaaaaaaaaaaaaaaaaaaaaacscaa" /></clipPath><inkscape:path-effect
       effect="spiro"
       id="path-effect14300-2-2-0"
       is_visible="true" /><clipPath
       clipPathUnits="userSpaceOnUse"
       id="clipPath14473-5"><path
         style="fill:url(#linearGradient14477);fill-opacity:1;stroke:none"
         d="m 511.82669,331.89986 c -0.60617,1.40358 -1.44178,2.70776 -2.46357,3.84504 -2.32524,2.58805 -5.50706,4.22246 -8.65855,5.69652 -5.42045,2.53534 -11.00071,4.7788 -16.11556,7.88485 -3.38301,2.05437 -6.53696,4.47221 -9.50169,7.09434 -2.52461,2.23286 -4.92977,4.6271 -7.72763,6.50627 -2.88313,1.93644 -6.17534,3.29888 -9.61582,3.77358 -4.21817,0.58201 -8.55335,-0.18335 -12.51035,-1.75619 -2.7091,-1.07682 -5.36625,-2.6185 -6.96693,-5.05501 -1.53813,-2.3413 -1.9333,-5.25173 -1.95338,-8.053 -0.0354,-4.93859 0.96501,-9.81816 1.90598,-14.66641 0.78215,-4.02995 1.52682,-8.0717 1.97741,-12.15204 0.81784,-7.40607 0.66114,-14.88536 0.27989,-22.32668 -0.064,-1.24906 -0.13361,-2.5105 0.0789,-3.74301 0.21256,-1.23251 0.73646,-2.45247 1.68171,-3.27147 0.93914,-0.8137 2.20952,-1.15942 3.45104,-1.2115 1.24152,-0.0521 2.47642,0.16381 3.70512,0.34927 2.88969,0.43617 5.81087,0.7091 8.65215,1.39297 1.78651,0.43 3.53091,1.02011 5.31265,1.46945 2.98632,0.75312 6.09645,1.10709 9.15804,0.77247 3.2941,-0.36004 6.50688,-1.50957 9.81969,-1.43207 1.35838,0.0318 2.70755,0.27142 4.01277,0.64907 1.31265,0.3798 2.61744,0.9202 3.6071,1.86246 0.72535,0.69061 1.25006,1.56936 1.64371,2.49029 0.57625,1.34814 0.88626,2.79994 1.02105,4.25986 0.11897,1.28855 0.10468,2.59405 0.36251,3.86214 0.4369,2.14878 1.63966,4.08139 3.11506,5.70353 1.4754,1.62214 3.22406,2.96752 4.9559,4.31247 1.75634,1.36398 3.50975,2.7398 5.39565,3.91818 0.88228,0.55128 1.79349,1.05932 2.63473,1.67142 0.84123,0.61209 1.61878,1.33907 2.14473,2.23668 0.68386,1.16711 0.90229,2.59857 0.59763,3.91652 l 2e-5,0"
         id="path14475-9"
         inkscape:connector-curvature="0"
         sodipodi:nodetypes="aaaaaaaaaaaaaaaaaaaaaaaacscaa" /></clipPath><linearGradient
       id="linearGradient14518-6"><stop
         id="stop14540-0"
         offset="0"
         style="stop-color:#110800;stop-opacity:1;" /><stop
         style="stop-color:#a65a00;stop-opacity:0.80000001;"
         offset="0.59066743"
         id="stop14542-5" /><stop
         style="stop-color:#ff921e;stop-opacity:0;"
         offset="1"
         id="stop14522-4" /></linearGradient><inkscape:path-effect
       is_visible="true"
       id="path-effect29716-0-0"
       effect="spiro" /><inkscape:path-effect
       is_visible="true"
       id="path-effect29716-0-8-3"
       effect="spiro" /><inkscape:path-effect
       is_visible="true"
       id="path-effect29716-6-1"
       effect="spiro" /><clipPath
       clipPathUnits="userSpaceOnUse"
       id="clipPath14822-9"><path
         sodipodi:nodetypes="aaaasssaccaa"
         inkscape:connector-curvature="0"
         d="m 386.1875,285.32775 c -0.40516,-1.10369 -1.11845,-2.08156 -1.9907,-2.86987 -0.87226,-0.78832 -1.90049,-1.39229 -2.98278,-1.85155 -2.16459,-0.91852 -4.52053,-1.26149 -6.83152,-1.69556 -2.17919,-0.40931 -4.34179,-0.90631 -6.52782,-1.27734 -2.27136,-0.38551 -4.6179,-0.63213 -6.8653,-0.1253 -1.96583,0.44333 -3.7845,1.45879 -5.27172,2.81864 -1.48723,1.35984 -2.64911,3.0564 -3.48499,4.89007 -1.47218,3.22952 -1.93451,6.86503 -1.65394,10.40316 0.20882,2.63325 0.87532,5.34594 2.60877,7.33912 1.40065,1.61052 3.38733,2.61526 5.43398,3.22092 3.52502,1.04316 7.36663,0.98822 10.86038,-0.1553 5.76689,-1.93113 10.87568,-5.77387 14.33034,-10.77903 1.13861,-1.64963 2.11217,-3.44809 2.5532,-5.4034 0.33597,-1.48955 0.34831,-3.08112 -0.1779,-4.51456"
         id="path14824-1"
         style="fill:none;stroke:#ce5c00;stroke-width:1px;stroke-linecap:butt;stroke-linejoin:miter;stroke-opacity:1" /></clipPath><clipPath
       clipPathUnits="userSpaceOnUse"
       id="clipPath14822-2-4"><path
         sodipodi:nodetypes="aaaasssaccaa"
         inkscape:connector-curvature="0"
         d="m 386.1875,285.32775 c -0.40516,-1.10369 -1.11845,-2.08156 -1.9907,-2.86987 -0.87226,-0.78832 -1.90049,-1.39229 -2.98278,-1.85155 -2.16459,-0.91852 -4.52053,-1.26149 -6.83152,-1.69556 -2.17919,-0.40931 -4.34179,-0.90631 -6.52782,-1.27734 -2.27136,-0.38551 -4.6179,-0.63213 -6.8653,-0.1253 -1.96583,0.44333 -3.7845,1.45879 -5.27172,2.81864 -1.48723,1.35984 -2.64911,3.0564 -3.48499,4.89007 -1.47218,3.22952 -1.93451,6.86503 -1.65394,10.40316 0.20882,2.63325 0.87532,5.34594 2.60877,7.33912 1.40065,1.61052 3.38733,2.61526 5.43398,3.22092 3.52502,1.04316 7.36663,0.98822 10.86038,-0.1553 5.76689,-1.93113 10.87568,-5.77387 14.33034,-10.77903 1.13861,-1.64963 2.11217,-3.44809 2.5532,-5.4034 0.33597,-1.48955 0.34831,-3.08112 -0.1779,-4.51456"
         id="path14824-6-5"
         style="fill:none;stroke:#ce5c00;stroke-width:1px;stroke-linecap:butt;stroke-linejoin:miter;stroke-opacity:1" /></clipPath><inkscape:path-effect
       effect="spiro"
       id="path-effect14972-2-2"
       is_visible="true" /><inkscape:path-effect
       effect="spiro"
       id="path-effect15017-9"
       is_visible="true" /><clipPath
       clipPathUnits="userSpaceOnUse"
       id="clipPath15031-3"><path
         style="fill:none;stroke:#729fcf;stroke-width:0.125;stroke-linecap:butt;stroke-linejoin:miter;stroke-miterlimit:4;stroke-dasharray:none;stroke-opacity:1"
         d="m 248.06066,184.61218 c -2.60091,3.4397 -5.23338,6.85555 -7.89695,10.24696 -2.83301,3.60715 -5.70116,7.1866 -8.58729,10.75139 -3.54135,4.37407 -7.15155,8.79286 -9.44912,13.93045 -1.97407,4.41422 -2.91014,9.20748 -4.26498,13.84932 -1.53862,5.27153 -3.62627,10.37023 -5.97071,15.33612 -2.1648,4.58539 -4.54978,9.06293 -6.93891,13.53553 -1.73823,3.25407 -3.50515,6.58104 -4.10782,10.22071 -0.47627,2.87632 -0.19849,5.84423 0.53376,8.66626 0.73224,2.82202 1.90964,5.5106 3.23775,8.10601 5.66724,11.07504 14.17003,20.62168 24.24176,27.92472 4.57063,3.31418 9.46669,6.18109 14.60245,8.52595 2.78247,1.27041 5.71355,2.40436 8.77186,2.45744 1.52915,0.0265 3.0741,-0.22544 4.47434,-0.84055 1.40024,-0.6151 2.65068,-1.60373 3.48254,-2.88709 1.02278,-1.5779 1.36992,-3.53829 1.16461,-5.40743 -0.2053,-1.86914 -0.93484,-3.65294 -1.91324,-5.25873 -2.38997,-3.92251 -6.1652,-6.76055 -9.79642,-9.57343 -7.84055,-6.07358 -15.42466,-12.48038 -22.68212,-19.23996 -2.04911,-1.90854 -4.0984,-3.87759 -5.53019,-6.28412 -1.3943,-2.34352 -2.14763,-5.01375 -2.65783,-7.69253 -1.39963,-7.34872 -1.0404,-15.0827 1.45958,-22.13343 0.97802,-2.75834 2.27066,-5.39225 3.51815,-8.03965 2.1622,-4.58855 4.21133,-9.26299 7.04933,-13.46723 3.53268,-5.23334 8.24484,-9.67275 11.15147,-15.27803 2.45457,-4.7335 3.49353,-10.05742 4.36185,-15.31831 0.66531,-4.03089 1.24751,-8.07549 1.74613,-12.13037"
         id="path15033-2"
         inkscape:connector-curvature="0"
         sodipodi:nodetypes="czzzzzzzzzzzzzzzszzzzzc" /></clipPath><clipPath
       clipPathUnits="userSpaceOnUse"
       id="clipPath14186-9"><path
         sodipodi:nodetypes="ssssssssssssssss"
         inkscape:connector-curvature="0"
         id="path14188-1"
         d="m 137.57703,281.0191 c 1.59929,-0.66295 3.3982,-0.78361 5.10074,-0.46963 1.70253,0.31398 3.31141,1.04948 4.74342,2.02239 2.86402,1.94583 4.98821,4.77774 7.02263,7.57952 4.67189,6.43406 9.16868,13.00227 13.24488,19.8293 3.30635,5.53766 6.34352,11.25685 10.16415,16.45304 2.49398,3.3919 5.3066,6.53947 7.813,9.92221 2.50639,3.38273 4.72794,7.05586 5.83931,11.11662 1.44411,5.27653 0.88463,11.09291 -1.62666,15.95302 -1.76663,3.41896 -4.47646,6.35228 -7.77242,8.33898 -3.29595,1.9867 -7.17064,3.01444 -11.01635,2.87021 -6.11413,-0.2293 -11.69944,-3.28515 -17.38362,-5.54906 -11.58097,-4.6125 -24.15978,-6.0594 -36.09666,-9.65174 -3.66859,-1.10404 -7.27582,-2.4107 -10.96988,-3.42629 -1.64125,-0.45122 -3.30866,-0.8482 -4.85875,-1.55144 -1.55008,-0.70325 -2.999548,-1.7491 -3.86171,-3.21675 -0.666391,-1.13439 -0.948386,-2.47002 -0.930187,-3.78554 0.0182,-1.31552 0.325889,-2.61453 0.773815,-3.85158 0.895851,-2.47409 2.343262,-4.71374 3.320162,-7.15696 1.59511,-3.98935 1.88169,-8.38839 1.66657,-12.67942 -0.21511,-4.29103 -0.91078,-8.54478 -1.20454,-12.83115 -0.13118,-1.91406 -0.18066,-3.85256 0.18479,-5.73598 0.36545,-1.88343 1.17577,-3.72459 2.55771,-5.05541 1.27406,-1.22693 2.96492,-1.95531 4.69643,-2.31651 1.73151,-0.3612 3.51533,-0.37747 5.28367,-0.33762 1.76833,0.0399 3.54067,0.13425 5.30351,-0.0106 1.76284,-0.14488 3.53347,-0.54055 5.06911,-1.41828 1.45996,-0.83447 2.65433,-2.0745 3.64374,-3.43424 0.9894,-1.35974 1.78909,-2.84573 2.60891,-4.31396 0.81983,-1.46823 1.66834,-2.93151 2.74157,-4.22611 1.07324,-1.2946 2.38923,-2.42304 3.94266,-3.06698"
         style="fill:#402c07;fill-opacity:1;stroke:none" /></clipPath><inkscape:path-effect
       is_visible="true"
       id="path-effect4669-1"
       effect="spiro" /><inkscape:path-effect
       is_visible="true"
       id="path-effect4669-4-3"
       effect="spiro" /><linearGradient
       inkscape:collect="always"
       xlink:href="#linearGradient28-1"
       id="linearGradient13"
       x1="-257.85831"
       y1="-121.90723"
       x2="958.50824"
       y2="1033.9437"
       gradientUnits="userSpaceOnUse" /><linearGradient
       inkscape:collect="always"
       xlink:href="#linearGradient28-1"
       id="linearGradient14"
       x1="-257.85831"
       y1="-121.90723"
       x2="958.50824"
       y2="1033.9437"
       gradientUnits="userSpaceOnUse" /><linearGradient
       inkscape:collect="always"
       xlink:href="#linearGradient28-1"
       id="linearGradient15"
       x1="-257.85831"
       y1="-121.90723"
       x2="958.50824"
       y2="1033.9437"
       gradientUnits="userSpaceOnUse" /><linearGradient
       inkscape:collect="always"
       xlink:href="#linearGradient28-1"
       id="linearGradient16"
       x1="-257.85831"
       y1="-121.90723"
       x2="958.50824"
       y2="1033.9437"
       gradientUnits="userSpaceOnUse" /><linearGradient
       inkscape:collect="always"
       xlink:href="#linearGradient28-1"
       id="linearGradient17"
       x1="-257.85831"
       y1="-121.90723"
       x2="958.50824"
       y2="1033.9437"
       gradientUnits="userSpaceOnUse" /><linearGradient
       inkscape:collect="always"
       xlink:href="#linearGradient28-1"
       id="linearGradient37"
       gradientUnits="userSpaceOnUse"
       x1="-257.85831"
       y1="-121.90723"
       x2="958.50824"
       y2="1033.9437" /><linearGradient
       inkscape:collect="always"
       xlink:href="#linearGradient326"
       id="linearGradient327"
       x1="61.020798"
       y1="142.46747"
       x2="149.45819"
       y2="142.82436"
       gradientUnits="userSpaceOnUse"
       gradientTransform="translate(36.665357,-248.26958)" /><linearGradient
       inkscape:collect="always"
       xlink:href="#linearGradient28-1"
       id="linearGradient2"
       x1="152.91624"
       y1="188.30107"
       x2="56.905949"
       y2="95.546013"
       gradientUnits="userSpaceOnUse" /><linearGradient
       inkscape:collect="always"
       xlink:href="#linearGradient28-1"
       id="linearGradient3"
       gradientUnits="userSpaceOnUse"
       x1="152.91624"
       y1="188.30107"
       x2="56.905949"
       y2="95.546013" /></defs><g
     inkscape:label="Layer 1"
     inkscape:groupmode="layer"
     id="layer1"><circle
       style="fill:url(#linearGradient327);fill-opacity:1;stroke:#191919;stroke-width:15;stroke-linecap:square;stroke-linejoin:bevel;stroke-dasharray:none;stroke-dashoffset:0;stroke-opacity:1;paint-order:normal"
       id="path323"
       inkscape:label="outline-circle"
       cx="142.46747"
       cy="-105.80212"
       r="42"
       transform="rotate(90)" /><path
       style="font-weight:600;font-size:10.5833px;line-height:0;font-family:'Fira Sans';-inkscape-font-specification:'Fira Sans Semi-Bold';font-variant-ligatures:none;text-align:center;letter-spacing:0px;word-spacing:0px;baseline-shift:baseline;text-anchor:middle;fill:url(#linearGradient2);stroke-width:5;stroke-linecap:round;stroke-linejoin:bevel;paint-order:stroke fill markers"
       d="m 61.100896,132.657 -0.345611,1.51687 7.140641,1.62696 0.952194,-4.17913 -1.180006,-0.44253 -0.644201,2.82736 z m 0.193077,-5.09716 c -0.171482,0.51178 0.07209,0.98405 0.543737,1.14208 0.471644,0.15804 0.950586,-0.0721 1.122068,-0.58393 0.171481,-0.51178 -0.06873,-0.99408 -0.540375,-1.15212 -0.471644,-0.15803 -0.953949,0.0822 -1.12543,0.59397 z m 2.978276,0.20545 -0.477459,1.42496 5.318533,1.78207 0.477459,-1.42497 z m 1.69185,-4.5036 c -0.296185,0.64426 -0.237586,1.27691 0.08638,1.91507 l -0.692887,-0.19042 -0.548163,1.19237 5.096382,2.34295 0.627735,-1.36544 -3.519388,-1.61797 c -0.319323,-0.49625 -0.437489,-0.92331 -0.256241,-1.31756 0.154723,-0.33655 0.419868,-0.48256 1.006432,-0.2129 l 3.480925,1.60028 0.627736,-1.36545 -3.711705,-1.70638 c -0.961581,-0.44206 -1.786088,-0.16882 -2.19721,0.72545 z m 4.120359,-6.67476 -0.817526,1.26101 3.294608,2.13593 c 0.237924,0.46957 0.278824,0.91231 0.05429,1.25865 -0.224532,0.34633 -0.502646,0.40567 -1.017706,0.0717 l -3.223565,-2.08987 -0.817527,1.26101 3.383412,2.1935 c 0.905795,0.58724 1.753119,0.50593 2.317327,-0.36435 0.408763,-0.6305 0.453732,-1.2446 0.154324,-1.93061 l 0.670805,0.3466 0.708139,-1.09228 z m 4.894392,-1.84106 -0.944656,-2.89352 -1.049359,1.21928 0.852597,1.86479 -1.984801,-0.54926 -1.104588,1.28345 3.090386,0.48146 1.036775,3.32188 1.076974,-1.25136 -0.960956,-2.20939 2.341692,0.60508 1.1253,-1.30752 z m 5.240333,-10.32732 -1.235425,0.94555 2.939573,3.84075 c 0.598207,0.78159 0.591541,1.39975 -0.0892,1.92077 -0.67234,0.51459 -1.27078,0.35955 -1.868986,-0.42204 l -2.939573,-3.84074 -1.235425,0.94555 2.9846,3.89957 c 0.926254,1.21021 2.309061,1.48459 3.779805,0.35894 1.470743,-1.12566 1.543328,-2.58058 0.649234,-3.74878 z m 4.012264,-0.55143 c -1.181357,0.66295 -1.585971,1.71525 -1.119832,2.54589 0.414345,0.73835 1.150316,0.96854 2.293236,0.69124 1.044318,-0.25838 1.287007,-0.23681 1.49418,0.13236 0.186455,0.33226 -0.0134,0.7114 -0.502554,0.98591 -0.489155,0.2745 -1.050159,0.33447 -1.579892,0.25553 l -0.242068,1.08245 c 0.699716,0.16558 1.543247,0.0684 2.392347,-0.40808 1.162899,-0.65259 1.792404,-1.75828 1.22268,-2.77351 -0.486856,-0.86756 -1.268507,-0.96289 -2.397018,-0.68153 -0.998172,0.23248 -1.23681,0.1965 -1.397369,-0.0896 -0.1502,-0.26765 -0.0086,-0.57767 0.425135,-0.8211 0.424551,-0.23825 0.899102,-0.32252 1.435806,-0.29604 l 0.07886,-1.02726 c -0.66864,-0.11021 -1.392851,0.005 -2.103511,0.40375 z m 8.535495,-0.74747 c -0.666291,-1.65984 -1.934663,-2.2911 -3.407893,-1.69972 -1.522338,0.6111 -1.878113,2.16803 -1.247304,3.73947 0.654464,1.63038 1.970147,2.3795 3.639807,1.70927 0.815187,-0.32723 1.345132,-0.88209 1.690264,-1.49961 l -0.894875,-0.55311 c -0.325628,0.49565 -0.643651,0.78297 -1.08562,0.96038 -0.667864,0.2681 -1.257574,0.16269 -1.75793,-0.79968 l 3.250927,-1.30498 c -0.04932,-0.15127 -0.11641,-0.37523 -0.187376,-0.55202 z m -1.518883,0.22197 -1.895555,0.76091 c -0.319626,-1.02351 -0.131568,-1.52095 0.418437,-1.74174 0.667864,-0.26809 1.138059,0.13618 1.453463,0.9219 z m 4.563568,-3.965345 c -0.623503,0.167388 -1.034275,0.759815 -1.086748,1.584805 l -0.405296,-1.019874 -1.267449,0.340264 1.454358,5.41732 1.451434,-0.38965 -0.743644,-2.76999 c -0.05475,-0.93866 0.127654,-1.52457 0.792042,-1.70293 0.183985,-0.0494 0.325095,-0.0544 0.509834,-0.0602 l -0.140846,-1.46344 c -0.187484,-0.0045 -0.369479,0.01153 -0.563685,0.06367 z m 7.210093,-2.759657 c -1.88976,0.132742 -3.326385,1.581045 -3.152857,4.051452 0.176497,2.51263 1.398827,3.75294 3.552507,3.60166 0.92904,-0.0653 1.80639,-0.41334 2.51351,-0.91921 l -0.25288,-3.600034 -2.6921,0.189102 0.2377,1.118502 1.02406,-0.0719 0.12533,1.78418 c -0.31467,0.20246 -0.67824,0.31288 -1.06886,0.34032 -1.07685,0.0756 -1.67551,-0.59314 -1.8127,-2.54624 -0.13349,-1.900308 0.63585,-2.728833 1.67046,-2.801508 0.60177,-0.04227 1.02685,0.11884 1.54974,0.464048 l 0.75358,-0.901684 c -0.64866,-0.474295 -1.40232,-0.782074 -2.44749,-0.708658 z m 6.97065,1.81182 c -0.6445,-0.03743 -1.2209,0.395543 -1.53045,1.162049 l -0.0636,-1.095609 -1.31012,-0.07609 -0.32522,5.599711 1.5003,0.0871 0.16629,-2.86325 c 0.24357,-0.90816 0.60116,-1.406844 1.28792,-1.366959 0.19018,0.01104 0.32569,0.05072 0.50285,0.103412 l 0.32707,-1.43336 c -0.17654,-0.06326 -0.35432,-0.105387 -0.55506,-0.117045 z m 3.69155,0.528669 c -1.66628,-0.301431 -2.86664,0.685992 -3.18503,2.446003 -0.33157,1.83291 0.47038,3.10727 2.11584,3.40493 1.65587,0.29955 2.85811,-0.69829 3.17461,-2.44788 0.33158,-1.83292 -0.45997,-3.105389 -2.10542,-3.403053 z m -0.1997,1.103913 c 0.71859,0.12999 0.99365,0.74977 0.76381,2.02031 -0.22796,1.26013 -0.70461,1.75468 -1.4336,1.6228 -0.729,-0.13188 -1.00407,-0.75166 -0.77423,-2.0222 0.22796,-1.26012 0.70461,-1.754671 1.44402,-1.62091 z m 8.52328,1.38281 -1.42447,-0.47896 -1.25135,3.72166 c -0.39582,0.34703 -0.81456,0.49654 -1.20578,0.365 -0.39123,-0.13155 -0.51774,-0.38623 -0.32211,-0.96805 l 1.22437,-3.64141 -1.42446,-0.478958 -1.28509,3.821978 c -0.34403,1.0232 -0.055,1.82383 0.92812,2.15438 0.71223,0.23947 1.31828,0.13061 1.90851,-0.3297 l -0.16926,0.73584 1.23387,0.41487 z m 4.39732,1.89318 c -0.50939,-0.25908 -1.15744,-0.31559 -1.81272,-0.008 l 0.2172,-0.61381 -1.17916,-0.59973 -3.5984,7.07495 1.41629,0.53037 1.17548,-2.31115 c 0.12898,0.51679 0.46232,0.91193 0.97171,1.17101 1.2452,0.63332 2.55674,-0.12444 3.33399,-1.65263 0.82043,-1.61309 0.7774,-2.92919 -0.52439,-3.5913 z m -2.69722,4.04249 c -0.34903,-0.17752 -0.55047,-0.48182 -0.59951,-0.92234 l 1.10351,-2.16965 c 0.43255,-0.26682 0.88762,-0.36782 1.28382,-0.16631 0.54713,0.27828 0.67098,0.85183 0.0329,2.10646 -0.59494,1.16972 -1.20753,1.4637 -1.82069,1.15184 z m 8.35881,0.47968 c -0.63223,-0.47992 -1.46263,-0.36619 -1.94255,0.26603 -0.47992,0.63223 -0.3726,1.47107 0.25963,1.95099 0.64066,0.48631 1.47106,0.37259 1.95098,-0.25964 0.47992,-0.63222 0.3726,-1.47106 -0.26806,-1.95738 z m 6.87068,3.04187 -1.06735,-1.13186 -5.32821,5.02453 2.94065,3.11839 1.02474,-0.73359 -1.98948,-2.10972 z m 5.90506,7.52615 -0.89467,-1.27276 -3.95681,2.78137 c -0.80521,0.56601 -1.42259,0.53428 -1.91557,-0.16703 -0.4869,-0.69266 -0.30772,-1.28432 0.4975,-1.85034 l 3.95681,-2.78137 -0.89467,-1.27276 -4.01742,2.82398 c -1.24678,0.87641 -1.57702,2.24695 -0.51195,3.76213 1.06508,1.51519 2.51586,1.64673 3.71936,0.80075 z m 2.52039,4.47596 c -0.82321,-1.70621 -2.70059,-2.50426 -4.93105,-1.42812 -2.26858,1.09454 -2.96798,2.68931 -2.0298,4.63381 0.4047,0.8388 1.05297,1.52484 1.78476,1.99432 l 3.25037,-1.56823 -1.17273,-2.43062 -0.95092,0.63506 0.44609,0.92459 -1.61088,0.77721 c -0.30461,-0.2173 -0.54182,-0.51413 -0.71198,-0.86681 -0.46909,-0.97225 -0.0696,-1.77603 1.69379,-2.62683 1.71574,-0.8278 2.77028,-0.42003 3.22097,0.51409 0.26214,0.54331 0.26992,0.99784 0.14292,1.6114 l 1.11667,0.36604 c 0.20032,-0.7782 0.20708,-1.59226 -0.24821,-2.53591 z m 0.37521,8.20874 c -0.20737,-0.76618 -0.93429,-1.18342 -1.70047,-0.97605 -0.76618,0.20737 -1.19364,0.93705 -0.98627,1.70323 0.21013,0.7764 0.93705,1.19364 1.70323,0.98627 0.76618,-0.20737 1.19364,-0.93705 0.98351,-1.71345 z"
       id="text2"
       inkscape:label="top"
       aria-label="Linux User Group • LUG • " /><g
       id="g1"
       transform="matrix(0.06787901,0,0,0.06787901,81.194418,110.82034)"
       inkscape:label="tux"><path
         d="m 683.91,677.74 c -0.01,-0.01 -0.021,-0.021 -0.021,-0.03 -6.069,-6.85 -8.96,-19.55 -12.069,-33.08 -3.101,-13.52 -6.57,-28.1 -17.67,-37.55 -0.021,-0.021 -0.051,-0.04 -0.07,-0.061 -2.2,-1.92 -4.46,-3.539 -6.73,-4.89 -2.279,-1.35 -4.59,-2.45 -6.899,-3.32 15.43,-45.76 9.38,-91.329 -6.2,-132.5 -19.11,-50.54 -52.48,-94.569 -77.97,-124.689 C 527.751,305.63 499.85,271.47 500.401,221.01 501.25,144 508.87,1.19 373.35,1 367.84,0.99 362.09,1.22 356.1,1.7 204.66,13.89 244.83,173.89 242.58,227.46 c -2.77,39.18 -10.71,70.06 -37.66,108.36 -31.65,37.64 -76.23,98.57 -97.34,162 -9.96,29.93 -14.7,60.439 -10.33,89.319 -1.37,1.23 -2.67,2.521 -3.92,3.841 -9.29,9.93 -16.16,21.949 -23.81,30.039 -7.15,7.141 -17.33,9.851 -28.53,13.86 -11.2,4.021 -23.49,9.94 -30.95,24.26 0,0 0,0.011 -0.01,0.011 -0.01,0.02 -0.02,0.05 -0.04,0.069 -3.51,6.55 -4.65,13.62 -4.65,20.79 0,6.63 0.98,13.351 1.97,19.82 2.06,13.46 4.15,26.189 1.38,34.81 -8.86,24.23 -10,40.98 -3.76,53.141 6.26,12.18 19.11,17.55 33.64,20.59 29.06,6.06 68.41,4.56 99.42,21 l 2.67,-5.03 -2.64,5.04 c 33.2,17.36 66.86,23.521 93.71,17.39 19.48,-4.439 35.28,-16.039 43.4,-33.88 21,-0.1 44.05,-9 80.97,-11.029 25.05,-2.021 56.34,8.899 92.33,6.899 0.94,3.9 2.301,7.66 4.16,11.23 0.021,0.029 0.04,0.069 0.061,0.1 13.949,27.9 39.869,40.66 67.5,38.48 27.659,-2.181 57.069,-18.49 80.85,-46.78 l -4.36,-3.66 4.391,3.62 c 22.66,-27.48 60.27,-38.87 85.22,-53.91 12.47,-7.52 22.58,-16.939 23.37,-30.62 0.778,-13.67 -7.252,-28.99 -25.712,-49.48 z"
         id="path3"
         style="fill:#191919;fill-opacity:1"
         fill="#000000"
         inkscape:label="outline" /><path
         fill="#D6A312"
         d="m 698.24,726.57 c -0.48,8.439 -6.59,14.71 -17.88,21.51 -22.561,13.61 -62.551,25.45 -88.08,56.38 -22.181,26.39 -49.221,40.88 -73.03,42.76 -23.809,1.88 -44.35,-8 -56.47,-32.31 l -0.021,-0.05 -0.029,-0.061 c -7.521,-14.3 -4.391,-36.85 1.939,-60.649 6.33,-23.79 15.43,-48.23 16.65,-68.08 v -0.061 c 1.279,-25.439 2.71,-47.66 6.979,-64.81 4.28,-17.15 11.01,-28.75 22.931,-35.28 0.56,-0.3 1.109,-0.59 1.659,-0.86 1.351,22.03 12.261,44.511 31.54,49.37 21.101,5.561 51.511,-12.54 64.351,-27.31 2.569,-0.101 5.069,-0.23 7.5,-0.29 11.27,-0.271 20.71,0.38 30.37,8.82 l 0.029,0.029 0.03,0.021 c 7.42,6.29 10.95,18.17 14.01,31.47 3.061,13.311 5.5,27.8 14.681,38.13 l 0.01,0.01 0.01,0.021 c 17.641,19.57 23.311,32.79 22.821,41.24 z"
         id="path5"
         style="fill:url(#linearGradient14);stroke-width:1.00117;stroke-dasharray:none"
         inkscape:label="foot-right" /><path
         d="m 269.49,788.95 -0.01,0.06 v 0.07 c -2.04,26.74 -17.12,41.3 -40.28,46.59 -23.14,5.29 -54.53,0.021 -85.87,-16.37 -0.01,0 -0.02,-0.01 -0.03,-0.01 C 108.62,800.92 67.37,802.75 40.9,797.22 27.67,794.46 19.03,790.3 15.07,782.58 c -3.96,-7.73 -4.05,-21.2 4.37,-44.17 l 0.04,-0.101 0.03,-0.1 c 4.17,-12.85 1.08,-26.91 -0.94,-40.11 -2.02,-13.189 -3.01,-25.199 1.5,-33.56 l 0.04,-0.08 c 5.77,-11.12 14.23,-15.1 24.73,-18.86 10.51,-3.77 22.96,-6.729 32.79,-16.59 l 0.06,-0.05 0.05,-0.05 c 9.09,-9.59 15.92,-21.62 23.91,-30.15 6.74,-7.2 13.49,-11.97 23.66,-12.04 0.12,0.011 0.23,0.011 0.35,0 1.78,0.011 3.67,0.16 5.67,0.471 13.5,2.04 25.27,11.479 36.61,26.859 l 32.74,59.67 0.01,0.03 0.02,0.02 c 8.71,18.19 27.11,38.2 42.7,58.61 15.59,20.401 27.65,40.891 26.08,56.571 z"
         id="path7"
         style="fill:url(#linearGradient15);stroke-width:1.00117;stroke-dasharray:none"
         fill="#D6A312"
         inkscape:label="foot-left" /><path
         d="m 432.77,232.69 c -2.63,-5.15 -8,-10.05 -17.14,-13.8 l -0.02,-0.01 -0.03,-0.01 c -19.01,-8.14 -27.26,-8.72 -37.87,-15.62 -17.27,-11.1 -31.54,-14.99 -43.4,-14.94 -6.21,0.02 -11.76,1.12 -16.73,2.84 -14.45,4.97 -24.04,15.34 -30.05,21.03 l -0.01,0.01 c 0,0.01 -0.01,0.01 -0.01,0.02 -1.18,1.12 -2.7,2.14 -6.38,4.84 -3.71,2.71 -9.27,6.79 -17.27,12.79 -7.11,5.33 -9.42,12.27 -6.96,20.4 2.45,8.13 10.29,17.51 24.63,25.62 l 0.02,0.02 0.03,0.01 c 8.9,5.23 14.98,12.28 21.96,17.89 3.49,2.8 7.16,5.3 11.58,7.19 4.42,1.89 9.58,3.17 16.04,3.55 15.16,0.88 26.32,-3.67 36.17,-9.31 9.87,-5.63 18.229,-12.52 27.82,-15.63 l 0.02,-0.01 0.021,-0.01 c 19.659,-6.14 33.68,-18.51 38.069,-30.26 2.2,-5.88 2.13,-11.46 -0.49,-16.61 z"
         id="path9"
         style="fill:url(#linearGradient17);stroke-width:1.00117;stroke-dasharray:none"
         fill="#D6A312"
         inkscape:label="mouth-white" /><path
         d="m 382.89,261.71 c -15.64075,8.1527 -33.91,18.04 -53.35,18.04 -19.43,0 -34.78,-8.98 -45.82,-17.73 -5.52,-4.37 -10,-8.72 -13.38,-11.88 -5.86434,-4.62903 -5.16188,-11.12168 -2.75246,-10.93 4.03863,0.50418 4.64927,5.82168 7.19246,8.2 3.44,3.22 7.75,7.39 12.97,11.53 10.44,8.27 24.36,16.32 41.79,16.32 17.4,0 37.71174,-10.21517 50.11,-17.17 7.02421,-3.94024 15.96224,-11.0031 23.25658,-16.35742 5.58072,-4.09647 5.37722,-9.02921 9.98509,-8.49216 4.60786,0.53705 1.19917,5.45984 -5.25377,11.09153 -6.45295,5.63169 -16.54818,13.10397 -24.7479,17.37805 z"
         id="path11"
         inkscape:connector-curvature="0"
         style="fill:#191919;fill-opacity:1"
         sodipodi:nodetypes="sscccccssszzs"
         inkscape:label="smile" /><path
         d="m 622.39,595.47 c -2.17,-0.08 -4.31,-0.069 -6.39,-0.02 -0.19,0.01 -0.38,0.01 -0.58,0.01 5.37,-16.96 -6.51,-29.47 -38.17,-43.79 -32.83,-14.439 -58.99,-13.01 -63.41,16.29 -0.28,1.53 -0.51,3.1 -0.68,4.68 -2.46,0.86 -4.92,1.94 -7.4,3.29 -15.41,8.44 -23.83,23.74 -28.51,42.521 -4.67,18.76 -6.02,41.43 -7.3,66.92 0,0.01 0,0.01 0,0.02 -0.79,12.811 -6.07,30.15 -11.41,48.511 -53.78,38.369 -128.42,54.989 -191.8,11.729 -4.29,-6.79 -9.22,-13.52 -14.29,-20.16 -3.24,-4.239 -6.57,-8.45 -9.87,-12.609 6.5,0.01 12.03,-1.061 16.5,-3.08 5.56,-2.53 9.46,-6.57 11.4,-11.771 3.86,-10.39 -0.02,-25.05 -12.39,-41.8 -12.37,-16.74 -33.32,-35.63 -64.1,-54.51 0,0 0,0 0,-0.01 -22.62,-14.07 -35.26,-31.311 -41.18,-50.03 -5.93,-18.73 -5.1,-38.98 -0.53,-58.97 8.76,-38.37 31.26,-75.69 45.62,-99.11 3.86,-2.84 1.38,5.28 -14.54,34.84 -14.26,27.021 -40.93,89.38 -4.42,138.061 0.98,-34.641 9.25,-69.971 23.14,-103.021 20.23,-45.85 62.54,-125.38 65.9,-188.76 1.74,1.26 7.69,5.28 10.34,6.79 0.01,0.01 0.01,0.01 0.02,0.01 7.76,4.57 13.59,11.25 21.14,17.32 7.57,6.08 17.02,11.33 31.3,12.16 1.37,0.08 2.71,0.12 4.02,0.12 14.72,0 26.2,-4.8 35.76,-10.27 10.391,-5.94 18.69,-12.52 26.561,-15.08 0.01,-0.01 0.02,-0.01 0.03,-0.01 16.63,-5.2 29.84,-14.4 37.359,-25.12 12.92,50.92 42.96,124.47 62.271,160.36 10.27,19.04 30.689,59.5 39.51,108.25 5.59,-0.171 11.75,0.64 18.34,2.329 23.07,-59.81 -19.56,-124.22 -39.06,-142.16 -7.87,-7.64 -8.25,-11.06 -4.34,-10.9 21.14,18.71 48.909,56.32 59.01,98.78 4.609,19.359 5.59,39.72 0.649,59.81 2.41,1 4.87,2.09 7.36,3.271 37.03,18.029 50.72,33.709 44.14,55.109 z"
         id="path13"
         fill="#ffffff"
         style="fill:url(#linearGradient13);stroke-width:1.00117;stroke-dasharray:none"
         inkscape:label="stomach" /><path
         d="m 434.51,174.03 c 0.08,10.09 -1.66,18.68 -5.49,27.45 -2.18,5 -4.689,9.2 -7.699,12.84 -1.021,-0.49 -2.08,-0.96 -3.181,-1.41 -3.81,-1.63 -7.18,-2.97 -10.199,-4.11 -3.021,-1.14 -5.37791,-1.91895 -7.80891,-2.75895 1.761,-2.13 5.23,-4.64 6.521,-7.79 1.96,-4.75 2.92,-9.39 3.1,-14.92 0,-0.22 0.07,-0.41 0.07,-0.67 0.11,-5.3 -0.59,-9.83 -2.14,-14.47 -1.62,-4.87 -3.681,-8.37 -6.66,-11.28 -2.99,-2.91 -5.97,-4.23 -9.55,-4.35 -0.17,-0.01 -0.33,-0.01 -0.5,-0.01 -3.36,0.01 -6.28,1.17 -9.301,3.69 -3.17,2.65 -5.52,6.04 -7.479,10.76 -1.95,4.72 -2.91,9.4 -3.101,14.96 -0.029,0.22 -0.029,0.41 -0.029,0.63 -0.07,3.06 0.13,5.86 0.6,8.58 -6.88,-3.43 -15.68209,-5.93105 -21.76209,-7.38105 -0.35,-2.63 -0.55,-5.34 -0.61,-8.18 v -0.77 c -0.11,-10.06 1.54,-18.69 5.41,-27.45 3.87,-8.77 8.66,-15.07 15.399,-20.2 6.75,-5.12 13.381,-7.47 21.23,-7.55 h 0.37 c 7.68,0 14.25,2.26 21,7.15 6.85,4.98 11.79,11.2 15.77,19.9 3.9,8.48 5.78,16.77 5.971,26.6 -10e-4,0.26 -10e-4,0.48 0.069,0.74 z"
         id="path15"
         inkscape:connector-curvature="0"
         style="fill:url(#linearGradient37);stroke-width:1.00117;stroke-dasharray:none"
         sodipodi:nodetypes="ccccccccccccccccccccccccscccc"
         inkscape:label="eye-white-right" /><path
         d="m 318.43,184.08 c -1.01,0.29 -1.99,0.6 -2.96,0.93 -5.5,1.9 -9.86686,3.99686 -14.08686,6.78686 0.41,-2.92 0.47,-5.88 0.15,-9.19 -0.03,-0.18 -0.03,-0.33 -0.03,-0.51 -0.44,-4.39 -1.37,-8.07 -2.92,-11.79 -1.65,-3.87 -3.5,-6.6 -5.93,-8.7 -2.2,-1.9 -4.28,-2.78 -6.58,-2.76 -0.23,0 -0.47,0.01 -0.71,0.03 -2.58,0.22 -4.72,1.48 -6.75,3.95 -2.02,2.46 -3.35,5.52 -4.31,9.58 -0.96,4.05 -1.21,8.03 -0.81,12.6 0,0.18 0.04,0.33 0.04,0.51 0.44,4.43 1.33,8.11 2.91,11.83 1.62,3.83 3.5,6.56 5.93,8.66 0.41,0.35 0.81,0.67 1.21,0.95 -2.52,1.95 -4.21314,3.33314 -6.29314,4.85314 -1.33,0.97 -2.91,2.13 -4.75,3.49 -4.01,-3.76 -7.14,-8.48 -9.88,-14.71 -3.24,-7.36 -4.97,-14.73 -5.49,-23.43 v -0.07 c -0.48,-8.7 0.37,-16.18 2.76,-23.92 2.4,-7.74 5.6,-13.34 10.25,-17.94 4.64,-4.61 9.32,-6.93 14.96,-7.22 0.44,-0.02 0.87,-0.03 1.3,-0.03 5.11,0.01 9.67,1.71 14.39,5.48 5.12,4.09 8.99,9.32 12.23,16.69 3.25,7.37 4.98,14.74 5.46,23.44 v 0.07 c 0.23,3.65 0.2,7.09 -0.09,10.42 z"
         id="path17"
         inkscape:connector-curvature="0"
         style="fill:url(#linearGradient16);stroke-width:1.00117;stroke-dasharray:none"
         sodipodi:nodetypes="cccccccccccccccccccccccccccccc"
         inkscape:label="eye-white-left" /><path
         sodipodi:nodetypes="aaaaaaa"
         inkscape:connector-curvature="0"
         id="path28396-7"
         d="m 344.08661,204.88969 c 0.64684,2.07624 3.99301,1.73211 5.92629,2.72792 1.69642,0.87378 3.06086,2.78891 4.96829,2.84398 1.82043,0.0526 4.65359,-0.63043 4.89041,-2.43615 0.31286,-2.38563 -3.17083,-3.90165 -5.41255,-4.77563 -2.88469,-1.12471 -6.58056,-1.69534 -9.28659,-0.19073 -0.6201,0.34477 -1.29689,1.15328 -1.08585,1.83064 z"
         style="opacity:1;fill:#191919;fill-opacity:1;stroke:none"
         inkscape:label="nostril-right" /><path
         style="opacity:1;fill:#191919;fill-opacity:1;stroke:none"
         d="m 324.32226,204.88969 c -0.64684,2.07624 -3.99301,1.73211 -5.92629,2.72792 -1.69642,0.87378 -3.06086,2.78891 -4.96829,2.84398 -1.82043,0.0526 -4.65359,-0.63043 -4.89041,-2.43615 -0.31286,-2.38563 3.17083,-3.90165 5.41255,-4.77563 2.88469,-1.12471 6.58056,-1.69534 9.28659,-0.19073 0.6201,0.34477 1.29689,1.15328 1.08585,1.83064 z"
         id="path5461"
         inkscape:connector-curvature="0"
         sodipodi:nodetypes="aaaaaaa"
         inkscape:label="nostril-left" /></g><circle
       style="fill:none;fill-opacity:1;stroke:none;stroke-width:15;stroke-linecap:square;stroke-linejoin:bevel;stroke-dasharray:none;stroke-dashoffset:0;stroke-opacity:0.379182;paint-order:normal"
       id="circle3"
       inkscape:label="outline-circle"
       cx="-142.46747"
       cy="-105.80212"
       r="42"
       transform="matrix(0,-1,-1,0,0,0)" /><path
       d="m 65.355187,139.52106 c 0.05757,-0.79166 -0.490556,-1.42575 -1.282213,-1.48331 -0.791658,-0.0576 -1.436299,0.48979 -1.493865,1.28144 -0.05833,0.80222 0.489789,1.4363 1.281446,1.49387 0.791657,0.0576 1.436299,-0.48979 1.494632,-1.292 z m 2.353701,6.25981 -0.144247,-1.54904 -7.292095,0.67904 0.397416,4.26777 1.25915,0.0528 -0.268869,-2.88734 z m 1.570372,8.34197 -0.364124,-1.51253 -4.702229,1.132 c -0.956909,0.23036 -1.519391,-0.0261 -1.720031,-0.85954 -0.198163,-0.82315 0.185974,-1.30751 1.142882,-1.53788 l 4.702229,-1.132 -0.364124,-1.51253 -4.774254,1.14934 c -1.481665,0.35669 -2.29262,1.50986 -1.859139,3.31049 0.433481,1.80064 1.734317,2.4563 3.164536,2.11199 z m 1.622931,3.55273 c -0.736697,-1.7453 -2.571747,-2.63641 -4.853312,-1.67335 -2.320565,0.97952 -3.098978,2.53725 -2.25939,4.52631 0.362175,0.85802 0.97526,1.57567 1.682616,2.08122 l 3.324843,-1.40343 -1.049484,-2.48632 -0.981545,0.58663 0.399216,0.94577 -1.647797,0.69554 c -0.293339,-0.23229 -0.515388,-0.54062 -0.667666,-0.90138 -0.419794,-0.99453 0.01946,-1.77729 1.823263,-2.53868 1.75505,-0.74082 2.787839,-0.28073 3.19117,0.67479 0.23459,0.55577 0.219595,1.01011 0.06202,1.61654 l 1.096925,0.42152 c 0.239058,-0.76718 0.286589,-1.57989 -0.120858,-2.54516 z m 1.07843,7.16916 c -0.438067,-0.66191 -1.259387,-0.82905 -1.921303,-0.39099 -0.661916,0.43807 -0.837882,1.26523 -0.399816,1.92715 0.443908,0.67074 1.265228,0.83788 1.927144,0.39981 0.661916,-0.43806 0.837882,-1.26522 0.393975,-1.93597 z m 8.351714,6.27682 -1.08468,-1.11527 -3.467179,3.37211 c -0.705574,0.68622 -1.320204,0.75252 -1.917885,0.13799 -0.590302,-0.60695 -0.506944,-1.2195 0.198631,-1.90572 l 3.467178,-3.37211 -1.08468,-1.11526 -3.520286,3.42375 c -1.092503,1.06255 -1.201853,2.46807 0.08943,3.79576 1.291286,1.32769 2.744613,1.22815 3.799182,0.2025 z m 2.218144,3.63501 c -0.566863,-0.42598 -1.197556,-0.50278 -1.889875,-0.3214 l 0.332916,-0.6368 -1.049122,-0.78838 -3.369714,4.48414 1.201413,0.90283 2.32701,-3.0966 c 0.552644,-0.20691 0.995049,-0.23189 1.341936,0.0288 0.296123,0.22253 0.382633,0.5126 -0.0052,1.0287 l -2.301579,3.06275 1.201413,0.90283 2.45417,-3.26581 c 0.635795,-0.84607 0.543475,-1.70975 -0.243366,-2.30104 z m 4.293012,-0.44363 c -0.463822,-0.27604 -0.976982,-0.13808 -1.23137,0.28937 -0.254389,0.42744 -0.130931,0.94428 0.332891,1.22032 0.463822,0.27604 0.986077,0.14349 1.240466,-0.28396 0.254388,-0.42744 0.121835,-0.94969 -0.341987,-1.22573 z m -0.831905,2.8671 -1.291426,-0.76858 -2.868637,4.82011 1.291426,0.76858 z m 5.312542,2.62377 -1.398936,-0.65613 -2.908242,3.5339 0.87691,-4.48663 -1.475591,-0.69208 -0.724186,5.8558 1.619317,0.75949 z m 4.083598,4.08466 c 0.538593,-1.70555 -0.04091,-2.9984 -1.554715,-3.47644 -1.564269,-0.49398 -2.827366,0.48336 -3.337277,2.09809 -0.529033,1.67528 0.01222,3.08923 1.727873,3.63101 0.837641,0.26452 1.599325,0.17209 2.257963,-0.0861 l -0.340476,-0.9954 c -0.566217,0.17635 -0.994332,0.19654 -1.448475,0.0531 -0.68626,-0.21671 -1.07507,-0.67244 -0.850922,-1.7337 l 3.340471,1.05488 c 0.0579,-0.1482 0.148193,-0.36385 0.205558,-0.54551 z m -1.314624,-0.79249 -1.947768,-0.61508 c 0.402618,-0.9938 0.863665,-1.25885 1.42882,-1.08038 0.68626,0.21671 0.793025,0.82755 0.538069,1.63491 z m 5.834246,-1.24024 c -0.634199,-0.1207 -1.261887,0.23387 -1.668224,0.95375 l 0.07904,-1.0946 -1.28919,-0.24535 -1.048679,5.51025 1.47633,0.28096 0.536212,-2.8175 c 0.359282,-0.8689 0.778533,-1.317 1.454318,-1.18838 0.18714,0.0356 0.316361,0.0925 0.485191,0.16775 l 0.510194,-1.37884 c -0.16685,-0.0856 -0.33766,-0.15045 -0.535192,-0.18804 z m 2.786502,0.27328 c -1.35037,-0.10786 -2.27274,0.54042 -2.34858,1.4899 -0.0674,0.84397 0.41542,1.44524 1.51895,1.85189 1.01112,0.36742 1.20061,0.52058 1.16691,0.94257 -0.0303,0.37978 -0.40756,0.58323 -0.9667,0.53857 -0.55913,-0.0447 -1.05837,-0.30749 -1.45424,-0.66824 l -0.804203,0.76389 c 0.488723,0.52742 1.243283,0.91682 2.213853,0.99434 1.32926,0.10617 2.46812,-0.46112 2.56081,-1.62159 0.0792,-0.99167 -0.51669,-1.50641 -1.61053,-1.90167 -0.95837,-0.36321 -1.13646,-0.52607 -1.11034,-0.85312 0.0244,-0.30594 0.31474,-0.48447 0.81057,-0.44487 0.48529,0.0388 0.92629,0.23324 1.35717,0.55432 l 0.63794,-0.80903 c -0.49378,-0.46412 -1.15929,-0.77208 -1.97161,-0.83696 z m 3.65938,-2.60433 c -0.53968,0.008 -0.90413,0.39511 -0.89639,0.89246 0.008,0.49736 0.38403,0.87255 0.92371,0.86416 0.53969,-0.008 0.91471,-0.39528 0.90698,-0.89263 -0.008,-0.49736 -0.39462,-0.87238 -0.9343,-0.86399 z m 0.79626,2.87721 -1.50265,0.0234 0.0872,5.60847 1.50264,-0.0234 z m 4.55458,4.04014 c -0.21929,0.14916 -0.4132,0.23203 -0.61332,0.25169 -0.37917,0.0373 -0.57893,-0.15579 -0.63275,-0.70348 l -0.27015,-2.749 1.13751,-0.11179 0.0439,-1.06775 -1.28497,0.12628 -0.13766,-1.40083 -1.47803,0.32603 0.12007,1.22178 -0.83208,0.0818 0.10351,1.05326 0.83207,-0.0818 0.27326,2.78059 c 0.12214,1.24284 0.77717,1.84843 1.93679,1.74511 0.49503,-0.0486 1.02823,-0.24993 1.41105,-0.57467 z m 5.06598,-5.46753 -1.52166,0.32389 -0.19431,4.78068 -2.0623,-4.30036 -1.56306,0.3327 2.87574,5.1227 0.50722,-0.10797 c -0.14156,0.8092 -0.4437,1.21977 -1.49975,1.59603 l 0.38001,1.0228 c 1.65269,-0.4708 2.33779,-1.47144 2.47797,-2.89711 z m 4.85381,-2.01581 c -1.55345,0.6739 -2.00409,2.16144 -1.29228,3.80228 0.74129,1.7088 2.11561,2.32391 3.64965,1.65843 1.54374,-0.66969 1.99016,-2.16694 1.28257,-3.79807 -0.7413,-1.7088 -2.10591,-2.32812 -3.63994,-1.66264 z m 0.44646,1.02916 c 0.66993,-0.29062 1.24268,0.0723 1.75653,1.25684 0.50964,1.1748 0.38755,1.85072 -0.29208,2.14555 -0.67964,0.29483 -1.25239,-0.0681 -1.76624,-1.25263 -0.50964,-1.1748 -0.38756,-1.85072 0.30179,-2.14976 z m 4.27604,-4.74608 c 0.22867,-0.13309 0.52054,-0.24175 0.89309,-0.27492 l -0.14372,-1.06742 c -0.45787,0.0338 -0.95698,0.16516 -1.4509,0.45265 -1.17993,0.68678 -1.36985,1.72798 -0.84811,2.62436 l 0.28216,0.48478 -0.76832,0.4472 0.53239,0.91468 0.76832,-0.44721 2.28927,3.93309 1.29884,-0.75599 -2.28927,-3.93309 1.00614,-0.58563 -0.38604,-0.99985 -1.15249,0.67081 -0.26087,-0.44819 c -0.2662,-0.45734 -0.20953,-0.75972 0.22951,-1.01527 z m 10.19327,0.87203 1.25563,-1.072 -6.46165,-4.11301 -1.44075,1.23006 3.04087,7.03352 1.23148,-1.05139 -0.75122,-1.51557 1.74661,-1.49118 z m -3.65735,-0.55126 -1.54014,-3.12421 2.84406,2.01098 z m 4.48018,-8.5191 -0.98921,1.13135 2.95586,2.58448 c 0.16844,0.49873 0.1457,0.94277 -0.12598,1.2535 -0.27169,0.31072 -0.55543,0.32974 -1.01753,-0.0743 l -2.89212,-2.52875 -0.98921,1.13135 3.03554,2.65414 c 0.81266,0.71056 1.66291,0.75107 2.3456,-0.0297 0.49461,-0.56568 0.6268,-1.16706 0.42842,-1.8888 l 0.61444,0.43884 0.85685,-0.97998 z m 1.85936,-3.02004 c -0.90777,1.36634 -0.45035,2.91545 1.0306,3.89936 1.48975,0.98976 3.00988,0.7672 3.93522,-0.62559 0.40996,-0.61706 0.53518,-1.24541 0.47251,-1.89694 l -1.14766,0.0253 c -0.008,0.49021 -0.0604,0.79849 -0.28878,1.14228 -0.39239,0.59062 -1.01736,0.74718 -2.10162,0.0268 -1.08426,-0.72036 -1.28786,-1.38928 -0.87204,-2.01516 0.22841,-0.34379 0.51574,-0.54678 0.94406,-0.69422 l -0.37736,-1.03849 c -0.67188,0.18892 -1.17911,0.55076 -1.59493,1.17664 z m -0.0445,-4.37867 -0.51263,1.4228 7.03392,3.46763 0.66451,-1.34793 z m 3.66164,-1.9943 -0.68791,1.3954 1.48265,2.73684 3.55304,-0.26611 0.75811,-1.53778 -3.68501,0.36624 z m 6.0459,0.1022 c 0.13169,-0.35751 0.16931,-0.70457 0.15413,-0.96956 l -1.10911,-0.0815 c 0.0105,0.0941 -0.003,0.19078 -0.0428,0.30002 -0.0768,0.20855 -0.22526,0.2441 -0.45367,0.15996 l -6.20686,-2.28635 -0.36056,1.46873 6.08768,2.24245 c 0.91365,0.33655 1.61663,0.0203 1.93123,-0.83377 z m 0.0818,-6.56889 -2.1959,-0.5545 c -1.23135,-0.31094 -2.06416,0.17735 -2.44505,1.68575 -0.15547,0.61567 -0.20345,1.36764 -0.10768,2.11225 l 1.06033,-0.0925 c -0.0474,-0.59049 -0.0153,-1.14998 0.0754,-1.50912 0.17101,-0.67724 0.45905,-0.91014 1.13629,-0.73913 l 0.26679,0.0674 -0.15806,0.62594 c -0.40421,1.60074 0.0142,2.66697 1.20452,2.96754 0.98508,0.24875 1.85386,-0.25229 2.12851,-1.33998 0.16325,-0.64646 0.0878,-1.29861 -0.39864,-1.83623 0.59059,-0.091 0.88919,-0.45223 1.10623,-1.05235 l -0.88682,-0.5514 c -0.15713,0.23321 -0.34473,0.32774 -0.78596,0.21632 z m 0.0222,2.54892 c -0.1166,0.46175 -0.45584,0.63806 -0.93812,0.51628 -0.59515,-0.15029 -0.784,-0.61277 -0.58189,-1.41314 l 0.11919,-0.47202 1.03638,0.26171 c 0.33551,0.31395 0.46808,0.69672 0.36444,1.10717 z m -3.5636,-7.85243 c -0.0752,0.70509 0.18218,1.28598 0.6928,1.78744 l -0.71743,0.0406 -0.13914,1.30494 5.57754,0.5947 0.15933,-1.49435 -3.85165,-0.41069 c -0.46095,-0.36845 -0.70918,-0.7355 -0.66317,-1.16697 0.0393,-0.36833 0.24398,-0.5913 0.88592,-0.52285 l 3.80956,0.4062 0.15934,-1.49436 -4.06213,-0.43313 c -1.05236,-0.11221 -1.74662,0.40979 -1.85097,1.38849 z m -2.16319,-5.8538 2.79165,-0.11436 c -0.31395,0.35181 -0.52796,0.81604 -0.50457,1.38706 0.0567,1.38525 1.33035,2.22282 3.06455,2.15178 1.78708,-0.0732 2.94196,-0.84078 2.88435,-2.24718 -0.0308,-0.75079 -0.42209,-1.25377 -0.92237,-1.57223 l 0.68387,-0.11275 -0.0541,-1.32181 -7.83565,0.32099 z m 7.0969,0.77909 c 0.0247,0.60274 -0.40298,1.02276 -1.80938,1.08037 -1.31123,0.0537 -1.87929,-0.36788 -1.90615,-1.0235 -0.0169,-0.4124 0.17233,-0.70614 0.48887,-0.9945 l 2.50614,-0.10267 c 0.45626,0.27789 0.70189,0.5856 0.72052,1.0403 z"
       id="text3"
       style="font-weight:600;font-size:10.5833px;line-height:0;font-family:'Fira Sans';-inkscape-font-specification:'Fira Sans, Semi-Bold';font-variant-ligatures:none;text-align:center;letter-spacing:0px;word-spacing:0px;text-anchor:middle;fill:url(#linearGradient3);stroke-width:4.99999;stroke-linecap:round;stroke-linejoin:bevel;paint-order:stroke fill markers"
       inkscape:label="bottom"
       aria-label="• LUG • University of Auckland" /></g></svg>
